<svg xmlns="http://www.w3.org/2000/svg" xmlns:xlink="http://www.w3.org/1999/xlink" version="1.1" id="Capa_1" x="0px" y="0px" width="314.063px" height="314.063px" viewBox="0 0 314.063 314.063" style="enable-background:new 0 0 314.063 314.063;" xml:space="preserve">
<g>
	<g id="_x33_59._Previous">
		<g>
			<path d="M235.532,21.063C160.437-22.289,64.413,3.431,21.062,78.53C-22.294,153.615,3.43,249.643,78.527,293.007     c75.087,43.345,171.119,17.617,214.476-57.47C336.363,160.438,310.619,64.417,235.532,21.063z M265.8,219.832     c-34.688,60.079-111.503,80.657-171.574,45.965C34.157,231.116,13.564,154.306,48.249,94.231     c34.683-60.082,111.507-80.666,171.578-45.975C279.898,82.932,300.484,159.756,265.8,219.832z M198.551,118.113L156.88,143.32     l0.08-17.641c0.038-8.662-5.953-12.061-13.363-7.566l-51.582,31.209c-7.422,4.484-7.406,11.736,0.038,16.192l51.103,30.597     c7.438,4.452,13.505,1.042,13.543-7.638l0.08-17.12l41.335,24.75c7.438,4.452,13.509,1.034,13.545-7.638l0.269-62.803     C211.952,117.009,205.958,113.619,198.551,118.113z"/>
		</g>
	</g>
</g>
<g>
</g>
<g>
</g>
<g>
</g>
<g>
</g>
<g>
</g>
<g>
</g>
<g>
</g>
<g>
</g>
<g>
</g>
<g>
</g>
<g>
</g>
<g>
</g>
<g>
</g>
<g>
</g>
<g>
</g>
</svg>